<svg xmlns="http://www.w3.org/2000/svg" width="246" height="60" viewBox="0 0 246 60" fill="none"><path d="M8.20007 9.9458L6.72162 34.019C6.54299 36.9208 8.85382 39.3718 11.7669 39.3718H54.8983C57.8115 39.3718 60.1223 36.9208 59.9436 34.019L58.4652 9.9458C58.1222 4.35722 53.4801 0 47.8694 0H18.7959C13.1852 0 8.54305 4.35722 8.20007 9.9458Z" fill="#F3FCF8"></path><path d="M59.9424 34.019L58.4502 9.9458C58.1041 4.35722 53.419 0 47.7564 0H43.8455C49.5081 0 54.1932 4.35722 54.5398 9.9458L56.032 34.019C56.2117 36.9208 53.88 39.3718 50.9394 39.3718H54.8504C57.7904 39.3718 60.1227 36.9208 59.9424 34.019Z" fill="#F3FCF8"></path><path d="M8.31156 59.9529C6.68471 59.9529 5.49311 58.4014 5.89451 56.8043L7.91165 48.7677H15.2117L10.5579 58.5256C10.1414 59.3985 9.26889 59.9529 8.31156 59.9529Z" fill="#F3FCF8"></path><path d="M57.9044 59.9529C59.5313 59.9529 60.7224 58.4014 60.3215 56.8043L58.3043 48.7677H51.0042L55.658 58.5256C56.0746 59.3985 56.947 59.9529 57.9044 59.9529Z" fill="#FFFDFA"></path><path d="M18.0377 26.975C28.2335 25.6078 38.4299 25.6078 48.6257 26.975C53.3152 27.6034 56.8203 31.6148 56.8203 36.365V36.6873H9.84253V36.365C9.84253 31.6148 13.3482 27.6039 18.0377 26.975Z" fill="white"></path><path d="M12.7191 50.1094C9.02364 50.1094 5.80676 47.5918 4.92892 44.0121L0.143503 24.4917C-0.504453 21.8483 1.10221 19.1775 3.74591 18.5034C6.40742 17.8248 9.12993 19.3722 9.89895 22.002L13.3808 33.907C13.8183 35.4032 15.1935 36.4318 16.7564 36.4318H49.9075C51.4704 36.4318 52.8456 35.4032 53.283 33.907L56.7644 22.002C57.5339 19.3722 60.2554 17.8244 62.9169 18.5029L62.9179 18.5034C65.5612 19.1775 67.1678 21.8483 66.5204 24.4917L61.7344 44.0121C60.8566 47.5918 57.6397 50.1094 53.9442 50.1094H12.7191Z" fill="#D7DBDA"></path><path d="M62.9263 18.5038C61.9075 18.2437 60.8796 18.3106 59.9561 18.6407C62.3241 19.4877 63.7107 22.0024 63.1019 24.4922L58.3278 44.0126C57.4521 47.5923 54.2428 50.11 50.5566 50.11H53.9745C57.6607 50.11 60.8699 47.5923 61.7461 44.0126L66.52 24.4922C67.1665 21.8488 65.5638 19.1779 62.9263 18.5038Z" fill="#D7DBDA"></path><path d="M84.4599 46.1285L75.3997 12.524H80.8646L87.5279 40.328L95.198 12.524H100.807L108.237 40.328L114.9 12.524H120.365L111.161 46.0806H105.217L97.8825 19.7627L90.3083 46.0806L84.4599 46.1285Z" fill="#FFFDFA"></path><path d="M133.477 46.6553C131.208 46.6553 129.162 46.1439 127.341 45.1212C125.551 44.0666 124.129 42.6125 123.074 40.7589C122.02 38.8734 121.492 36.6842 121.492 34.1914C121.492 31.6986 122.02 29.5255 123.074 27.6718C124.161 25.7863 125.615 24.3321 127.436 23.3095C129.258 22.2549 131.288 21.7275 133.525 21.7275C135.794 21.7275 137.823 22.2549 139.613 23.3095C141.434 24.3321 142.872 25.7863 143.927 27.6718C145.014 29.5255 145.557 31.6986 145.557 34.1914C145.557 36.6842 145.014 38.8734 143.927 40.7589C142.872 42.6125 141.434 44.0666 139.613 45.1212C137.791 46.1439 135.746 46.6553 133.477 46.6553ZM133.477 42.2929C134.692 42.2929 135.81 41.9893 136.832 41.3821C137.887 40.7748 138.734 39.88 139.373 38.6976C140.013 37.4831 140.332 35.9811 140.332 34.1914C140.332 32.4017 140.013 30.9157 139.373 29.7332C138.766 28.5188 137.935 27.6079 136.88 27.0007C135.858 26.3935 134.74 26.0899 133.525 26.0899C132.31 26.0899 131.176 26.3935 130.121 27.0007C129.099 27.6079 128.268 28.5188 127.628 29.7332C126.989 30.9157 126.669 32.4017 126.669 34.1914C126.669 35.9811 126.989 37.4831 127.628 38.6976C128.268 39.88 129.099 40.7748 130.121 41.3821C131.144 41.9893 132.262 42.2929 133.477 42.2929Z" fill="#FFFDFA"></path><path d="M162.174 46.6553C159.906 46.6553 157.86 46.1439 156.038 45.1212C154.249 44.0666 152.827 42.6125 151.772 40.7589C150.717 38.8734 150.19 36.6842 150.19 34.1914C150.19 31.6986 150.717 29.5255 151.772 27.6718C152.859 25.7863 154.313 24.3321 156.134 23.3095C157.956 22.2549 159.985 21.7275 162.222 21.7275C164.491 21.7275 166.521 22.2549 168.31 23.3095C170.132 24.3321 171.57 25.7863 172.625 27.6718C173.712 29.5255 174.255 31.6986 174.255 34.1914C174.255 36.6842 173.712 38.8734 172.625 40.7589C171.57 42.6125 170.132 44.0666 168.31 45.1212C166.489 46.1439 164.443 46.6553 162.174 46.6553ZM162.174 42.2929C163.389 42.2929 164.508 41.9893 165.53 41.3821C166.585 40.7748 167.432 39.88 168.071 38.6976C168.71 37.4831 169.03 35.9811 169.03 34.1914C169.03 32.4017 168.71 30.9157 168.071 29.7332C167.463 28.5188 166.633 27.6079 165.578 27.0007C164.556 26.3935 163.437 26.0899 162.222 26.0899C161.008 26.0899 159.873 26.3935 158.819 27.0007C157.796 27.6079 156.965 28.5188 156.326 29.7332C155.687 30.9157 155.367 32.4017 155.367 34.1914C155.367 35.9811 155.687 37.4831 156.326 38.6976C156.965 39.88 157.796 40.7748 158.819 41.3821C159.841 41.9893 160.96 42.2929 162.174 42.2929Z" fill="#FFFDFA"></path><path d="M190.584 46.6556C188.283 46.6556 186.253 46.1123 184.495 45.0257C182.738 43.9391 181.364 42.453 180.373 40.5675C179.383 38.682 178.887 36.5407 178.887 34.1438C178.887 31.7469 179.383 29.6217 180.373 27.7681C181.364 25.8825 182.738 24.4124 184.495 23.3578C186.286 22.2712 188.33 21.7279 190.632 21.7279C192.518 21.7279 194.163 22.0954 195.569 22.8305C197.007 23.5655 198.126 24.6042 198.925 25.9464V11.5651H204.006V46.0804H199.452L198.925 42.3891C198.158 43.5077 197.103 44.4984 195.761 45.3613C194.419 46.2242 192.693 46.6556 190.584 46.6556ZM191.494 42.2453C193.668 42.2453 195.442 41.4943 196.816 39.9922C198.222 38.4902 198.925 36.5567 198.925 34.1918C198.925 31.7949 198.222 29.8614 196.816 28.3913C195.442 26.8892 193.668 26.1382 191.494 26.1382C189.321 26.1382 187.532 26.8892 186.125 28.3913C184.719 29.8614 184.016 31.7949 184.016 34.1918C184.016 35.7577 184.336 37.148 184.975 38.3624C185.615 39.5768 186.493 40.5355 187.611 41.2386C188.762 41.9098 190.056 42.2453 191.494 42.2453Z" fill="#FFFDFA"></path><path d="M210.413 46.0804V11.5651H215.494V46.0804H210.413Z" fill="#FFFDFA"></path><path d="M224.71 56.6268L230.414 44.115H229.024L219.628 22.3032H225.141L232.428 39.8964L240.05 22.3032H245.419L230.079 56.6268H224.71Z" fill="#FFFDFA"></path></svg>